<svg width="1647" height="1116" viewBox="0 0 1647 1116" fill="none" xmlns="http://www.w3.org/2000/svg">
<rect width="1721.13" height="1116" fill="black" fill-opacity="0" transform="translate(-6.45764)"/>
<path d="M1714.67 0H-6.45764V1116H1714.67V0Z" fill="#7C21FF"/>
<path d="M1096.84 605L573 1116H1647L1096.84 605Z" fill="#B633FF"/>
<path d="M1096.84 605L991.446 1116H1647L1096.84 605Z" fill="#C2BAFF"/>
<path d="M4.5 1116L421.673 820.88L871.319 1116H4.5Z" fill="#B633FF"/>
<path d="M356.055 1116L421.674 820.88L871.319 1116H356.055Z" fill="#BDAEFF"/>
<path d="M1287.62 677.04L1646.5 1116H935.861L1287.62 677.04Z" fill="#B633FF"/>
<path d="M1287.62 677.04L1641 1116H1243.51L1287.62 677.04Z" fill="#B8A2FF"/>
<path d="M683.07 861.8L946.618 1116H388.327L683.07 861.8Z" fill="#B633FF"/>
<path d="M624.982 1116L683.07 861.8L946.618 1116H624.982Z" fill="#B695FF"/>
<path d="M1645 1116L1500.61 783.68L1172.52 1116H1645Z" fill="#B633FF"/>
<path d="M1645 1116L1500.61 783.68L1461.88 1116H1645Z" fill="#B487FF"/>
<path d="M1295.15 1116L1038.05 851.88L773.429 1116H1295.15Z" fill="#B633FF"/>
<path d="M1007.93 1116H1295.15L1038.05 851.88L1007.93 1116Z" fill="#B478FF"/>
</svg>
