<svg width="579" height="505" fill="none" xmlns="http://www.w3.org/2000/svg"><path d="M550.104 260.504c0-135.027-109.424-244.492-244.403-244.492-134.979 0-244.4 109.465-244.4 244.492C61.302 395.535 170.723 505 305.702 505c134.979 0 244.403-109.465 244.403-244.496z" fill="#FF9633"/><path d="M287.035 210.411H77.942V87.316a4.574 4.574 0 0 1 4.571-4.573h199.951a4.572 4.572 0 0 1 4.571 4.573V210.41z" fill="#D2D1CC"/><path d="M305.043 237.469H55.505v-3.866h251.781v1.626a2.242 2.242 0 0 1-2.243 2.24" fill="#4A4A4A"/><path d="M279.518 205.378H85.458V89.616h194.06v115.762z" fill="#46B2D8"/><path d="M305.454 235.196H57.332c-1.648 0-2.452-2.072-1.256-3.239l22.071-21.546h209.094l19.551 21.629c1.084 1.2.258 3.156-1.338 3.156" fill="#DEDFE3"/><path d="M279.646 225.417H83.145c-1.305 0-1.944-1.253-.995-1.959l9.554-11.185h179.491l9.508 11.233c.86.73.202 1.911-1.057 1.911" fill="#4F5054"/><path d="M219.207 233.375h-73.438l5.319-6.705h62.763l5.356 6.705z" fill="#4A4A4A"/><path d="M579 335.252H400.941V114.595H579v220.657z" fill="#E5E4E1"/><path d="M484.803 215.481h-66.714V125.63h66.714v89.851M561.852 215.481h-66.714V125.63h66.714v89.851M484.803 324.217h-66.714v-89.855h66.714v89.855M561.852 324.217h-66.714v-89.855h66.714v89.855" fill="#fff"/><path d="M484.803 202.98v12.501h-66.714s-.015-9.752-.015-12.501c0-6.903 14.94-12.5 33.366-12.5 18.427 0 33.363 5.597 33.363 12.5z" fill="#46B2D8"/><path d="M454.614 197.768h-6.825a4.302 4.302 0 0 1-4.302-4.304v-17.849h15.433v17.849a4.305 4.305 0 0 1-4.306 4.304" fill="#FAB58D"/><path d="M470.439 159.438c0 13.433-12.08 25.81-19.981 25.81-7.906 0-18.491-12.377-18.491-25.81 0-13.428 9.21-23.315 19.832-23.315 10.623 0 18.64 9.887 18.64 23.315z" fill="#FADBB3"/><path d="M440.396 137.716s-1.779 1.874.108 7.916c1.888 6.043 14.902 2.82 18.416 3.691 6.41 1.597 5.068 8.392 5.068 8.392s7.494-6.795 3.734-15.328c-3.943-8.938-15.923-13.537-27.326-4.671" fill="#FF7C00"/><path d="M446.114 137.312s1.985 2.394 1.301 7.558c-.688 5.164-11.878 11.33-13.373 12.923-1.499 1.597-1.249 4.697-1.249 4.697s-3.117-5.011-2.743-10.418c.437-6.331 5.449-16.188 16.064-14.76M462.725 136.123s5.901 3.717 7.714 13.709c1.267 6.989-1.028 10.852-1.028 10.852s-.086-2.513-3.106-5.789c-3.016-3.276-3.58-18.772-3.58-18.772z" fill="#FF7C00"/><path d="M561.859 203.033v12.501h-66.714s-.015-9.756-.015-12.501c0-6.907 14.94-12.505 33.367-12.505 18.426 0 33.362 5.598 33.362 12.505z" fill="#46B2D8"/><path d="M531.67 197.816h-6.821a4.303 4.303 0 0 1-4.306-4.304v-17.844h15.433v17.844a4.305 4.305 0 0 1-4.306 4.304z" fill="#FAB58D"/><path d="M547.495 159.491c0 13.428-12.08 25.806-19.982 25.806-7.905 0-18.49-12.378-18.49-25.806 0-13.429 9.21-23.319 19.832-23.319 10.623 0 18.64 9.89 18.64 23.319z" fill="#FADBB3"/><path d="M517.452 137.768s-1.779 1.874.108 7.913c1.888 6.043 14.902 2.82 18.416 3.695 6.413 1.596 5.068 8.391 5.068 8.391s7.494-6.795 3.734-15.328c-3.943-8.941-15.923-13.541-27.326-4.671" fill="#FF7C00"/><path d="M523.17 137.365s1.985 2.389 1.301 7.553c-.684 5.164-11.878 11.331-13.373 12.927-1.499 1.593-1.249 4.693-1.249 4.693s-3.117-5.007-2.743-10.418c.437-6.327 5.453-16.188 16.064-14.755M539.781 136.172s5.901 3.72 7.714 13.708c1.267 6.989-1.028 10.856-1.028 10.856s-.086-2.517-3.102-5.792c-3.02-3.272-3.584-18.772-3.584-18.772" fill="#FF7C00"/><path d="M484.811 311.716v12.501h-66.714s-.015-9.756-.015-12.501c0-6.907 14.939-12.501 33.366-12.501s33.363 5.594 33.363 12.501z" fill="#46B2D8"/><path d="M454.621 306.503h-6.825a4.304 4.304 0 0 1-4.302-4.308v-17.844h15.433v17.844a4.308 4.308 0 0 1-4.306 4.308" fill="#FAB58D"/><path d="M470.447 268.174c0 13.428-12.081 25.806-19.982 25.806-7.905 0-18.49-12.378-18.49-25.806s9.209-23.319 19.832-23.319c10.622 0 18.64 9.891 18.64 23.319z" fill="#FADBB3"/><path d="M440.403 246.451s-1.779 1.874.108 7.913c1.888 6.043 14.903 2.82 18.416 3.695 6.414 1.596 5.072 8.391 5.072 8.391s7.49-6.795 3.73-15.328c-3.943-8.941-15.922-13.541-27.326-4.671" fill="#FF7C00"/><path d="M446.122 246.048s1.984 2.389 1.301 7.553c-.688 5.164-11.875 11.331-13.374 12.927-1.499 1.593-1.248 4.693-1.248 4.693s-3.118-5.007-2.744-10.418c.438-6.327 5.454-16.188 16.065-14.755M462.732 244.855s5.902 3.717 7.715 13.709c1.267 6.989-1.028 10.855-1.028 10.855s-.086-2.517-3.106-5.792c-3.017-3.272-3.581-18.772-3.581-18.772" fill="#FF7C00"/><path d="M561.623 311.764v12.501H494.91s-.015-9.752-.015-12.501c0-6.903 14.939-12.501 33.362-12.501 18.427 0 33.366 5.598 33.366 12.501" fill="#46B2D8"/><path d="M531.434 306.552h-6.825a4.305 4.305 0 0 1-4.302-4.308v-17.845h15.433v17.845a4.309 4.309 0 0 1-4.306 4.308" fill="#FAB58D"/><path d="M547.26 268.222c0 13.429-12.081 25.806-19.982 25.806-7.905 0-18.49-12.377-18.49-25.806 0-13.428 9.206-23.319 19.832-23.319 10.622 0 18.64 9.891 18.64 23.319z" fill="#FADBB3"/><path d="M517.216 246.5s-1.779 1.874.109 7.916c1.887 6.04 14.902 2.816 18.415 3.691 6.41 1.597 5.068 8.392 5.068 8.392s7.494-6.795 3.731-15.328c-3.94-8.938-15.919-13.537-27.323-4.671" fill="#FF7C00"/><path d="M522.935 246.096s1.985 2.393 1.301 7.554c-.688 5.164-11.879 11.33-13.378 12.927-1.495 1.593-1.248 4.693-1.248 4.693s-3.113-5.007-2.74-10.414c.438-6.331 5.45-16.192 16.065-14.76M539.545 244.903s5.902 3.721 7.715 13.709c1.267 6.989-1.028 10.856-1.028 10.856s-.086-2.517-3.106-5.789c-3.02-3.276-3.581-18.776-3.581-18.776z" fill="#FF7C00"/><path d="M118.155 292.963L0 392.495l42.7-.617 75.455-98.915zM118.155 292.963l18.864 114.303-50.305-7.187 31.441-107.116z" fill="#56C4E9"/><path d="M118.155 292.963L59.078 431.868l-16.379-39.99 75.456-98.915z" fill="#006F8A"/><path d="M59.078 431.868l59.077-138.905-31.44 107.116-27.637 31.789z" fill="#38A4CA"/><path d="M451.25 309.177h-9.711c-4.791 0-20.605-5.123-39.29-10.276l-7.363-14.67c.172-.954.299-1.922.299-2.921 0-9.135-7.476-16.61-16.607-16.61h-61.851c-9.131 0-16.606 7.475-16.606 16.61 0 .588.115 1.145.175 1.717l-7.527 11.689c-32.537 6.096-62.7 14.461-62.7 14.461h-54.45c-11.143 0-20.259 9.12-20.259 20.268v147.367c0 11.147 9.116 20.268 20.259 20.268H451.25c11.142 0 20.258-9.121 20.258-20.268V329.445c0-11.148-9.116-20.268-20.258-20.268" fill="#006F8A"/><path d="M429.168 398.935c0 49.173-39.851 89.039-89.009 89.039-49.155 0-89.006-39.866-89.006-89.039 0-49.174 39.851-89.04 89.006-89.04 49.158 0 89.009 39.866 89.009 89.04" fill="#56C4E9"/><path d="M210.499 325.9c0 7.228-7.749 13.091-17.31 13.091-9.557 0-17.305-5.863-17.305-13.091 0-7.229 7.748-13.088 17.305-13.088 9.561 0 17.31 5.859 17.31 13.088z" fill="#FF7C00"/><path d="M280.737 297.383l-44.863 10.201c-4.302.976-8.623-1.743-9.599-6.047-.979-4.3 1.738-8.623 6.04-9.599l44.867-10.201c4.299-.98 8.62 1.739 9.595 6.043.979 4.304-1.742 8.623-6.04 9.603" fill="#38A4CA"/><path d="M424.339 398.935c0 46.507-37.687 84.212-84.18 84.212-46.49 0-84.177-37.705-84.177-84.212 0-46.508 37.687-84.209 84.177-84.209 46.493 0 84.18 37.701 84.18 84.209" fill="#000E3D"/><path d="M413.892 398.935c0 40.737-33.011 73.76-73.733 73.76s-73.73-33.023-73.73-73.76c0-40.738 33.008-73.761 73.73-73.761s73.733 33.023 73.733 73.761" fill="#46B2D8"/><path d="M379.976 286.46h-64.105c-4.07 0-7.4-3.332-7.4-7.401 0-4.072 3.33-7.4 7.4-7.4h64.105c4.067 0 7.397 3.328 7.397 7.4 0 4.069-3.33 7.401-7.397 7.401" fill="#F0F0F0"/><path d="M402.496 396.683c-9.09 9.091-30.085 2.827-46.897-13.989-16.812-16.816-23.073-37.821-13.986-46.911 9.09-9.091 30.084-2.827 46.896 13.989 16.812 16.82 23.073 37.821 13.987 46.911zM317.647 456.365c-5.768 5.77-18.281 2.602-27.955-7.075-9.673-9.678-12.842-22.198-7.075-27.967 5.764-5.767 18.281-2.599 27.954 7.078 9.673 9.678 12.839 22.198 7.076 27.964z" fill="#56C4E9"/><path d="M385.366 28.487l4.754 41.396-73.774 35.696 69.02-77.092z" fill="#A3A3A3"/><path d="M316.346 105.579l84.662-67.639 57.396 21.038-142.058 46.601zM316.346 105.579L355.248 0l30.118 28.487-69.02 77.092z" fill="#F4F4F3"/></svg>